<svg width="26" height="26" viewBox="0 0 26 26" fill="none" xmlns="http://www.w3.org/2000/svg">
<path d="M13 1.625C6.71836 1.625 1.625 6.71836 1.625 13C1.625 19.2816 6.71836 24.375 13 24.375C19.2816 24.375 24.375 19.2816 24.375 13C24.375 6.71836 19.2816 1.625 13 1.625ZM10.9688 16.8594C10.9688 16.9711 10.8773 17.0625 10.7656 17.0625H9.54688C9.43516 17.0625 9.34375 16.9711 9.34375 16.8594V9.14062C9.34375 9.02891 9.43516 8.9375 9.54688 8.9375H10.7656C10.8773 8.9375 10.9688 9.02891 10.9688 9.14062V16.8594ZM16.6562 16.8594C16.6562 16.9711 16.5648 17.0625 16.4531 17.0625H15.2344C15.1227 17.0625 15.0312 16.9711 15.0312 16.8594V9.14062C15.0312 9.02891 15.1227 8.9375 15.2344 8.9375H16.4531C16.5648 8.9375 16.6562 9.02891 16.6562 9.14062V16.8594Z" fill="white"/>
</svg>
