<svg width="24" height="24" viewBox="0 0 24 24" fill="none" xmlns="http://www.w3.org/2000/svg">
<path d="M12 1.5C6.20156 1.5 1.5 6.20156 1.5 12C1.5 17.7984 6.20156 22.5 12 22.5C17.7984 22.5 22.5 17.7984 22.5 12C22.5 6.20156 17.7984 1.5 12 1.5ZM15.3773 12.1617L10.2586 15.8859C10.2305 15.9061 10.1975 15.9181 10.163 15.9207C10.1285 15.9233 10.094 15.9164 10.0633 15.9006C10.0325 15.8849 10.0067 15.861 9.98863 15.8315C9.97057 15.802 9.96099 15.7681 9.96094 15.7336V8.28984C9.96082 8.25522 9.9703 8.22124 9.98832 8.19167C10.0063 8.1621 10.0322 8.1381 10.063 8.12232C10.0938 8.10654 10.1284 8.09961 10.1629 8.10229C10.1975 8.10497 10.2306 8.11716 10.2586 8.1375L15.3773 11.8594C15.4015 11.8765 15.4213 11.8991 15.4349 11.9254C15.4485 11.9517 15.4556 11.9809 15.4556 12.0105C15.4556 12.0402 15.4485 12.0694 15.4349 12.0957C15.4213 12.122 15.4015 12.1446 15.3773 12.1617Z" fill="white"/>
</svg>
